<svg width="109" height="32" viewBox="0 0 109 32" fill="none" xmlns="http://www.w3.org/2000/svg">
<g clip-path="url(#clip0_262_1818)">
<path d="M104.731 0.64C106.587 0.64 108.091 2.144 108.091 4V28C108.091 29.856 106.587 31.36 104.731 31.36H4.73125C2.87525 31.36 1.37125 29.856 1.37125 28V4C1.37125 2.144 2.87525 0.64 4.73125 0.64H104.731ZM104.731 0H4.73125C2.53125 0 0.731255 1.8 0.731255 4V28C0.731255 30.2 2.53125 32 4.73125 32H104.731C106.931 32 108.731 30.2 108.731 28V4C108.731 1.8 106.931 0 104.731 0Z" fill="white"/>
<path d="M38.6673 8.192C38.6673 8.864 38.4673 9.4 38.0673 9.792C37.6193 10.264 37.0273 10.504 36.3073 10.504C35.5873 10.504 35.0273 10.264 34.5393 9.784C34.0513 9.304 33.8113 8.704 33.8113 8C33.8113 7.296 34.0513 6.696 34.5393 6.216C35.0273 5.736 35.6113 5.496 36.3073 5.496C36.6513 5.496 36.9793 5.56 37.2913 5.696C37.6033 5.832 37.8513 6.008 38.0433 6.232L37.6193 6.656C37.2993 6.28 36.8673 6.088 36.3073 6.088C35.8033 6.088 35.3633 6.264 34.9953 6.624C34.6273 6.976 34.4433 7.44 34.4433 8.008C34.4433 8.576 34.6273 9.04 34.9953 9.392C35.3633 9.744 35.8033 9.928 36.3073 9.928C36.8433 9.928 37.2913 9.752 37.6513 9.392C37.8833 9.16 38.0193 8.832 38.0513 8.416H36.3073V7.84H38.6353C38.6593 7.968 38.6673 8.088 38.6673 8.2V8.192Z" fill="white" stroke="white" stroke-width="0.2" stroke-miterlimit="10"/>
<path d="M42.3553 6.192H40.1713V7.712H42.1393V8.288H40.1713V9.808H42.3553V10.4H39.5553V5.6H42.3553V6.192Z" fill="white" stroke="white" stroke-width="0.2" stroke-miterlimit="10"/>
<path d="M44.9553 10.4H44.3393V6.192H42.9953V5.6H46.2913V6.192H44.9473V10.4H44.9553Z" fill="white" stroke="white" stroke-width="0.2" stroke-miterlimit="10"/>
<path d="M48.6833 10.4V5.6H49.2993V10.4H48.6833Z" fill="white" stroke="white" stroke-width="0.2" stroke-miterlimit="10"/>
<path d="M52.0353 10.4H51.4193V6.192H50.0753V5.6H53.3713V6.192H52.0273V10.4H52.0353Z" fill="white" stroke="white" stroke-width="0.2" stroke-miterlimit="10"/>
<path d="M59.6193 9.776C59.1473 10.264 58.5633 10.504 57.8593 10.504C57.1553 10.504 56.5713 10.264 56.0993 9.776C55.6273 9.288 55.3953 8.696 55.3953 8C55.3953 7.304 55.6273 6.704 56.0993 6.224C56.5713 5.736 57.1553 5.496 57.8593 5.496C58.5633 5.496 59.1393 5.736 59.6193 6.224C60.0913 6.712 60.3313 7.304 60.3313 8C60.3313 8.696 60.0993 9.296 59.6273 9.776H59.6193ZM56.5553 9.376C56.9073 9.736 57.3473 9.912 57.8593 9.912C58.3713 9.912 58.8113 9.736 59.1633 9.376C59.5153 9.016 59.6993 8.56 59.6993 8C59.6993 7.44 59.5233 6.984 59.1633 6.624C58.8113 6.264 58.3713 6.088 57.8593 6.088C57.3473 6.088 56.9073 6.264 56.5553 6.624C56.2033 6.984 56.0193 7.44 56.0193 8C56.0193 8.56 56.1953 9.016 56.5553 9.376Z" fill="white" stroke="white" stroke-width="0.2" stroke-miterlimit="10"/>
<path d="M61.1953 10.4V5.6H61.9473L64.2833 9.336H64.3073L64.2833 8.408V5.6H64.8993V10.4H64.2593L61.8193 6.488H61.7953L61.8193 7.416V10.408H61.2033L61.1953 10.4Z" fill="white" stroke="white" stroke-width="0.2" stroke-miterlimit="10"/>
<path d="M55.2433 17.4C53.3633 17.4 51.8273 18.832 51.8273 20.8C51.8273 22.768 53.3633 24.2 55.2433 24.2C57.1233 24.2 58.6593 22.76 58.6593 20.8C58.6593 18.84 57.1233 17.4 55.2433 17.4ZM55.2433 22.864C54.2113 22.864 53.3233 22.016 53.3233 20.8C53.3233 19.584 54.2113 18.736 55.2433 18.736C56.2753 18.736 57.1633 19.576 57.1633 20.8C57.1633 22.024 56.2753 22.864 55.2433 22.864ZM47.7953 17.4C45.9153 17.4 44.3793 18.832 44.3793 20.8C44.3793 22.768 45.9153 24.2 47.7953 24.2C49.6753 24.2 51.2113 22.76 51.2113 20.8C51.2113 18.84 49.6753 17.4 47.7953 17.4ZM47.7953 22.864C46.7633 22.864 45.8753 22.016 45.8753 20.8C45.8753 19.584 46.7633 18.736 47.7953 18.736C48.8273 18.736 49.7153 19.576 49.7153 20.8C49.7153 22.024 48.8273 22.864 47.7953 22.864ZM38.9313 18.44V19.88H42.3873C42.2833 20.688 42.0113 21.288 41.6033 21.696C41.0993 22.2 40.3153 22.752 38.9393 22.752C36.8113 22.752 35.1473 21.04 35.1473 18.912C35.1473 16.784 36.8113 15.072 38.9393 15.072C40.0833 15.072 40.9233 15.52 41.5393 16.104L42.5553 15.088C41.6913 14.264 40.5473 13.632 38.9313 13.632C36.0193 13.632 33.5713 16 33.5713 18.92C33.5713 21.84 36.0193 24.208 38.9313 24.208C40.5073 24.208 41.6913 23.696 42.6193 22.728C43.5713 21.776 43.8673 20.432 43.8673 19.352C43.8673 19.016 43.8433 18.704 43.7873 18.448H38.9313V18.44ZM75.1793 19.56C74.8993 18.8 74.0353 17.392 72.2673 17.392C70.4993 17.392 69.0593 18.768 69.0593 20.792C69.0593 22.696 70.4993 24.192 72.4353 24.192C73.9953 24.192 74.8993 23.24 75.2673 22.688L74.1073 21.912C73.7233 22.48 73.1953 22.856 72.4353 22.856C71.6753 22.856 71.1313 22.512 70.7873 21.824L75.3393 19.944L75.1873 19.56H75.1793ZM70.5393 20.696C70.4993 19.384 71.5553 18.712 72.3153 18.712C72.9073 18.712 73.4113 19.008 73.5793 19.432L70.5393 20.696ZM66.8433 23.992H68.3393V13.992H66.8433V23.992ZM64.3953 18.152H64.3473C64.0113 17.752 63.3713 17.392 62.5553 17.392C60.8513 17.392 59.2913 18.888 59.2913 20.808C59.2913 22.728 60.8513 24.2 62.5553 24.2C63.3713 24.2 64.0113 23.84 64.3473 23.424H64.3953V23.912C64.3953 25.216 63.6993 25.912 62.5793 25.912C61.6673 25.912 61.0993 25.256 60.8673 24.704L59.5633 25.248C59.9393 26.152 60.9313 27.256 62.5793 27.256C64.3313 27.256 65.8113 26.224 65.8113 23.712V17.6H64.3953V18.152V18.152ZM62.6833 22.856C61.6513 22.856 60.7873 21.992 60.7873 20.808C60.7873 19.624 61.6513 18.736 62.6833 18.736C63.7153 18.736 64.4993 19.616 64.4993 20.808C64.4993 22 63.6993 22.856 62.6833 22.856ZM82.1873 13.992H78.6113V23.992H80.1073V20.2H82.1953C83.8513 20.2 85.4753 19 85.4753 17.096C85.4753 15.192 83.8513 13.992 82.1953 13.992H82.1873ZM82.2273 18.816H80.1073V15.384H82.2273C83.3473 15.384 83.9793 16.312 83.9793 17.096C83.9793 17.88 83.3473 18.808 82.2273 18.808V18.816ZM91.4513 17.376C90.3713 17.376 89.2513 17.856 88.7873 18.904L90.1153 19.456C90.3953 18.904 90.9233 18.72 91.4753 18.72C92.2433 18.72 93.0352 19.184 93.0432 20.008V20.112C92.7712 19.96 92.1953 19.728 91.4833 19.728C90.0513 19.728 88.6032 20.512 88.6032 21.976C88.6032 23.312 89.7713 24.176 91.0833 24.176C92.0833 24.176 92.6433 23.728 92.9873 23.2H93.0353V23.976H94.4753V20.144C94.4753 18.368 93.1473 17.376 91.4353 17.376H91.4513ZM91.2672 22.856C90.7792 22.856 90.0993 22.608 90.0993 22.008C90.0993 21.24 90.9473 20.944 91.6833 20.944C92.3393 20.944 92.6512 21.088 93.0432 21.28C92.9312 22.208 92.1312 22.864 91.2672 22.864V22.856ZM99.7312 17.592L98.0192 21.928H97.9713L96.1953 17.592H94.5873L97.2513 23.656L95.7312 27.024H97.2912L101.395 17.592H99.7393H99.7312ZM86.2833 23.992H87.7792V13.992H86.2833V23.992Z" fill="white"/>
<path d="M9.07525 6.04C8.84325 6.288 8.70725 6.664 8.70725 7.16V24.84C8.70725 25.336 8.84325 25.72 9.07525 25.96L9.13125 26.016L19.0353 16.112V15.88L9.13925 5.976L9.08325 6.032L9.07525 6.04Z" fill="#5BC9F4"/>
<path d="M22.3393 19.416L19.0353 16.112V15.88L22.3393 12.576L22.4113 12.616L26.3233 14.84C27.4433 15.472 27.4433 16.512 26.3233 17.152L22.4113 19.376L22.3393 19.416V19.416Z" fill="url(#paint0_linear_262_1818)"/>
<path d="M22.4193 19.376L19.0433 16L9.08325 25.96C9.45125 26.352 10.0593 26.4 10.7473 26.008L22.4273 19.376" fill="url(#paint1_linear_262_1818)"/>
<path d="M22.4193 12.624L10.7393 5.992C10.0513 5.6 9.44325 5.648 9.07525 6.04L19.0353 16L22.4113 12.624H22.4193Z" fill="url(#paint2_linear_262_1818)"/>
</g>
<defs>
<linearGradient id="paint0_linear_262_1818" x1="25.6033" y1="16" x2="6.25925" y2="16" gradientUnits="userSpaceOnUse">
<stop stop-color="#FEE000"/>
<stop offset="0.42" stop-color="#FBBC0E"/>
<stop offset="0.78" stop-color="#F9A318"/>
<stop offset="1" stop-color="#F99B1C"/>
</linearGradient>
<linearGradient id="paint1_linear_262_1818" x1="20.5793" y1="17.832" x2="2.38726" y2="36.024" gradientUnits="userSpaceOnUse">
<stop stop-color="#EF4547"/>
<stop offset="1" stop-color="#C6186D"/>
</linearGradient>
<linearGradient id="paint2_linear_262_1818" x1="2.30725" y1="-4.104" x2="17.1633" y2="10.744" gradientUnits="userSpaceOnUse">
<stop stop-color="#279E6F"/>
<stop offset="0.04" stop-color="#2B9F6E"/>
<stop offset="0.46" stop-color="#52B16B"/>
<stop offset="0.8" stop-color="#6BBC69"/>
<stop offset="1" stop-color="#74C169"/>
</linearGradient>
<clipPath id="clip0_262_1818">
<rect width="108" height="32" fill="white" transform="translate(0.731255)"/>
</clipPath>
</defs>
</svg>
