<svg width="96" height="32" viewBox="0 0 96 32" fill="none" xmlns="http://www.w3.org/2000/svg">
<g clip-path="url(#clip0_262_1782)">
<path fill-rule="evenodd" clip-rule="evenodd" d="M7.62774 -2.56997e-05H88.1078V-0.0001297C88.3953 -0.0001297 88.6875 -0.0001297 88.975 0.0014703C89.174 0.00274368 89.3771 0.00610124 89.5776 0.00941533C89.6228 0.0101613 89.6678 0.010905 89.7125 0.0116223C90.2487 0.0175805 90.7836 0.0648565 91.3125 0.15303C91.8435 0.243367 92.358 0.412428 92.8391 0.65463C93.8013 1.14879 94.5843 1.93213 95.0781 2.89447C95.3195 3.37398 95.4865 3.8874 95.5734 4.41713C95.6626 4.94656 95.7123 5.48191 95.7219 6.01873C95.725 6.26404 95.725 6.51013 95.725 6.75545C95.7313 7.04493 95.7313 7.3352 95.7313 7.62781V7.62888V24.3718V24.3729C95.7313 24.6679 95.7313 24.9566 95.725 25.2469C95.725 25.4953 95.725 25.7359 95.7219 25.9844C95.7123 26.5212 95.6626 27.0565 95.5734 27.5859C95.4867 28.1159 95.3197 28.6296 95.0781 29.1093C94.8327 29.5867 94.5137 30.0225 94.1329 30.4008C93.7548 30.7823 93.318 31.1006 92.8391 31.3437C92.358 31.5866 91.8436 31.7567 91.3125 31.8484C90.7835 31.9358 90.2487 31.9831 89.7125 31.9898C89.4688 31.9953 89.2188 31.9984 88.975 31.9984C88.6875 32 88.3953 32 88.1078 32H7.62774C7.3344 32 7.04454 32 6.75196 31.9984C6.50704 31.9984 6.26407 31.9953 6.0168 31.9898C5.47965 31.9827 4.94378 31.9355 4.41368 31.8484C3.88436 31.7573 3.37173 31.5872 2.89298 31.3437C2.41364 31.1008 1.97644 30.7824 1.59806 30.4008C1.21618 30.024 0.89786 29.5879 0.65548 29.1093C0.412087 28.63 0.243469 28.1162 0.15548 27.5859C0.0664107 27.0566 0.0184807 26.5211 0.01212 25.9844C0.00704794 25.8146 0.00507516 25.6485 0.00308676 25.4811C0.00216473 25.4035 0.00123933 25.3255 0 25.2469V6.75545C0.00125402 6.67681 0.00218662 6.59809 0.00311955 6.51935C0.00509694 6.35244 0.00707582 6.18541 0.01212 6.01876C0.0184787 5.48199 0.0664088 4.94652 0.15548 4.41716C0.243712 3.88713 0.41232 3.37366 0.65548 2.8945C0.897971 2.41439 1.21624 1.97648 1.59806 1.59763C1.97788 1.21771 2.4148 0.899552 2.89298 0.654702C3.37174 0.411907 3.88442 0.2428 4.41368 0.153102C4.94369 0.0653153 5.47961 0.0180557 6.0168 0.0117343C6.06813 0.0109221 6.11928 0.0100783 6.1703 0.00923654C6.36504 0.00602377 6.55789 0.00284213 6.75196 0.0015743C7.04454 -2.56997e-05 7.33438 -2.56997e-05 7.62774 -2.56997e-05ZM6.03243 31.2915C6.27426 31.297 6.51212 31.3001 6.75586 31.3001L88.1078 31.3017L88.975 31.3001C89.2133 31.3001 89.4586 31.297 89.6929 31.2915C90.194 31.2854 90.6938 31.2418 91.1883 31.1611C91.6527 31.0823 92.1025 30.934 92.5227 30.7212C92.9374 30.5104 93.3154 30.2342 93.6422 29.9032C93.9696 29.5787 94.2438 29.2046 94.4547 28.7947C94.6663 28.3741 94.812 27.9235 94.8867 27.4587C94.9684 26.9684 95.0141 26.4728 95.0234 25.9759C95.0265 25.7306 95.0265 25.4923 95.0265 25.2321C95.0329 24.9462 95.0329 24.6626 95.0329 24.3719V7.629C95.0329 7.34111 95.0329 7.05556 95.0265 6.75556C95.0265 6.51337 95.0265 6.27001 95.0242 6.04345C95.0147 5.53748 94.9682 5.03288 94.8852 4.53368C94.8098 4.0749 94.6654 3.63015 94.457 3.21455C94.0308 2.38342 93.3553 1.70648 92.525 1.2786C92.1037 1.06698 91.6532 0.919272 91.1883 0.840324C90.6967 0.759652 90.1997 0.716171 89.7016 0.710252L88.9711 0.700092H6.75626L6.0344 0.70986C5.53169 0.716088 5.03015 0.759961 4.53399 0.841108C4.0738 0.919078 3.62793 1.06577 3.21134 1.27626C2.7969 1.48857 2.41835 1.76459 2.08946 2.09424C1.76021 2.42078 1.48596 2.79845 1.27735 3.2126C1.06555 3.63109 0.918934 4.07949 0.842583 4.54228C0.760529 5.03741 0.71626 5.53808 0.710159 6.03993C0.705479 6.20244 0.698407 6.75556 0.698407 6.75556V25.236C0.698407 25.236 0.705047 25.7978 0.710119 25.9665C0.716491 26.4691 0.761019 26.9706 0.843319 27.4665C0.919529 27.928 1.06603 28.3751 1.27772 28.7923C1.4871 29.2067 1.76288 29.5841 2.09413 29.9095C2.42065 30.2387 2.798 30.5133 3.21173 30.7227C3.62928 30.9339 4.07599 31.0816 4.53712 31.1611C5.03165 31.2414 5.53146 31.285 6.03243 31.2915Z" fill="white"/>
<path d="M19.9974 15.9115C20.0063 15.2171 20.1908 14.5363 20.5335 13.9324C20.8763 13.3284 21.3663 12.821 21.9578 12.4573C21.582 11.9206 21.0862 11.4789 20.5099 11.1673C19.9335 10.8557 19.2924 10.6828 18.6375 10.6623C17.2405 10.5157 15.8862 11.4982 15.1743 11.4982C14.4487 11.4982 13.3526 10.6769 12.1723 10.7011C11.4089 10.7258 10.6649 10.9478 10.0128 11.3455C9.36065 11.7432 8.82267 12.3031 8.45125 12.9705C6.84236 15.7561 8.04245 19.85 9.58365 22.1017C10.3548 23.2043 11.256 24.4359 12.4352 24.3922C13.5891 24.3444 14.02 23.6564 15.4129 23.6564C16.7929 23.6564 17.1972 24.3922 18.4003 24.3645C19.6386 24.3444 20.4187 23.257 21.1627 22.1439C21.7168 21.3583 22.1431 20.49 22.4259 19.5712C21.7066 19.267 21.0927 18.7577 20.6608 18.1069C20.2289 17.4561 19.9982 16.6925 19.9974 15.9115Z" fill="white"/>
<path d="M17.7249 9.18145C18.4 8.37099 18.7326 7.32927 18.6521 6.27753C17.6206 6.38587 16.6679 6.87883 15.9836 7.65819C15.6491 8.03893 15.3929 8.48187 15.2296 8.9617C15.0663 9.44152 14.9993 9.94882 15.0322 10.4546C15.5481 10.4599 16.0585 10.3481 16.5249 10.1276C16.9913 9.90702 17.4016 9.58353 17.7249 9.18145V9.18145Z" fill="white"/>
<path d="M33.8414 21.7117H30.0547L29.1453 24.3969H27.5414L31.1281 14.4625H32.7945L36.3813 24.3969H34.75L33.8414 21.7117ZM30.4469 20.4727H33.4485L31.9688 16.1148H31.9274L30.4469 20.4727Z" fill="white"/>
<path d="M44.1274 20.7758C44.1274 23.0266 42.9227 24.4727 41.1047 24.4727C40.6442 24.4967 40.1862 24.3907 39.7831 24.1665C39.3801 23.9424 39.0483 23.6094 38.8258 23.2055H38.7914V26.793H37.3047V17.1539H38.7437V18.3586H38.7711C39.0038 17.9566 39.3412 17.6253 39.7473 17.3998C40.1534 17.1743 40.6131 17.0631 41.0773 17.0781C42.9156 17.0781 44.1274 18.5312 44.1274 20.7758ZM42.5992 20.7758C42.5992 19.3094 41.8414 18.3453 40.6852 18.3453C39.5492 18.3453 38.7852 19.3297 38.7852 20.7758C38.7852 22.2352 39.5492 23.2125 40.6852 23.2125C41.8414 23.2125 42.5992 22.2555 42.5992 20.7758H42.5992Z" fill="white"/>
<path d="M52.0996 20.7758C52.0996 23.0266 50.8945 24.4727 49.0766 24.4727C48.616 24.4967 48.158 24.3907 47.755 24.1665C47.352 23.9424 47.0202 23.6094 46.7977 23.2055H46.7633V26.793H45.2766V17.1539H46.7156V18.3586H46.743C46.9757 17.9566 47.3131 17.6253 47.7192 17.3998C48.1253 17.1743 48.5849 17.0631 49.0492 17.0781C50.8875 17.0781 52.0996 18.5312 52.0996 20.7758ZM50.5711 20.7758C50.5711 19.3094 49.8133 18.3453 48.657 18.3453C47.5211 18.3453 46.757 19.3297 46.757 20.7758C46.757 22.2352 47.5211 23.2125 48.657 23.2125C49.8133 23.2125 50.5711 22.2555 50.5711 20.7758V20.7758Z" fill="white"/>
<path d="M57.3676 21.6289C57.4777 22.6141 58.4348 23.2609 59.7426 23.2609C60.9957 23.2609 61.8973 22.614 61.8973 21.7257C61.8973 20.9546 61.3535 20.4929 60.066 20.1765L58.7785 19.8664C56.9543 19.4257 56.1074 18.5726 56.1074 17.1882C56.1074 15.4742 57.6012 14.2968 59.7215 14.2968C61.8215 14.2968 63.2606 15.4742 63.309 17.1882H61.8082C61.7184 16.1968 60.8988 15.5984 59.7012 15.5984C58.5035 15.5984 57.684 16.2039 57.684 17.0851C57.684 17.7875 58.2074 18.2007 59.4879 18.5171L60.5824 18.7859C62.6207 19.2679 63.4668 20.0867 63.4668 21.5398C63.4668 23.3984 61.9871 24.5624 59.6324 24.5624C57.4293 24.5624 55.9418 23.4257 55.8457 21.6288L57.3676 21.6289Z" fill="white"/>
<path d="M66.677 15.4398V17.1539H68.0543V18.3312H66.677V22.3242C66.677 22.9445 66.9527 23.2336 67.5582 23.2336C67.7217 23.2307 67.885 23.2193 68.0473 23.1992V24.3695C67.7751 24.4204 67.4984 24.4434 67.2215 24.4383C65.7551 24.4383 65.1832 23.8875 65.1832 22.4828V18.3312H64.1301V17.1539H65.1832V15.4398H66.677Z" fill="white"/>
<path d="M68.8512 20.7758C68.8512 18.4969 70.1934 17.0648 72.2864 17.0648C74.3864 17.0648 75.7223 18.4968 75.7223 20.7758C75.7223 23.0609 74.3934 24.4867 72.2864 24.4867C70.1801 24.4867 68.8512 23.0609 68.8512 20.7758ZM74.2074 20.7758C74.2074 19.2125 73.491 18.2898 72.2863 18.2898C71.0817 18.2898 70.3653 19.2195 70.3653 20.7758C70.3653 22.3453 71.0817 23.2609 72.2863 23.2609C73.491 23.2609 74.2074 22.3453 74.2074 20.7758H74.2074Z" fill="white"/>
<path d="M76.9481 17.1539H78.366V18.3867H78.4004C78.4964 18.0017 78.7219 17.6614 79.0392 17.4231C79.3565 17.1848 79.7461 17.063 80.1426 17.0781C80.3139 17.0775 80.4848 17.0961 80.652 17.1336V18.5242C80.4357 18.4581 80.2101 18.4278 79.984 18.4344C79.768 18.4256 79.5527 18.4637 79.3528 18.546C79.1529 18.6283 78.9732 18.7529 78.8261 18.9112C78.6789 19.0695 78.5677 19.2578 78.5002 19.4631C78.4326 19.6685 78.4103 19.886 78.4348 20.1008V24.3969H76.948L76.9481 17.1539Z" fill="white"/>
<path d="M87.5067 22.2695C87.3067 23.5844 86.0262 24.4867 84.3879 24.4867C82.2809 24.4867 80.9731 23.075 80.9731 20.8101C80.9731 18.5383 82.2879 17.0648 84.3254 17.0648C86.3293 17.0648 87.5895 18.4414 87.5895 20.6375V21.1469H82.4738V21.2367C82.4502 21.5033 82.4836 21.7718 82.5717 22.0245C82.6599 22.2771 82.8008 22.5082 82.9851 22.7022C83.1694 22.8963 83.3928 23.0489 83.6406 23.1499C83.8884 23.2509 84.1549 23.2981 84.4223 23.2883C84.7736 23.3212 85.1262 23.2398 85.4275 23.0563C85.7289 22.8727 85.963 22.5968 86.0949 22.2695L87.5067 22.2695ZM82.4809 20.1078H86.102C86.1153 19.8681 86.079 19.6283 85.9952 19.4033C85.9115 19.1783 85.7822 18.9731 85.6153 18.8005C85.4485 18.6279 85.2478 18.4916 85.0258 18.4002C84.8039 18.3089 84.5654 18.2644 84.3254 18.2695C84.0833 18.2681 83.8433 18.3146 83.6193 18.4064C83.3952 18.4982 83.1916 18.6334 83.0201 18.8043C82.8486 18.9753 82.7127 19.1784 82.6201 19.4021C82.5276 19.6259 82.4802 19.8657 82.4809 20.1078V20.1078Z" fill="white"/>
<path d="M30.261 6.9848C30.5726 6.96243 30.8854 7.00952 31.1767 7.12267C31.468 7.23581 31.7305 7.4122 31.9454 7.6391C32.1603 7.866 32.3221 8.13775 32.4192 8.43477C32.5164 8.73179 32.5463 9.04666 32.507 9.35667C32.507 10.8817 31.6828 11.7583 30.261 11.7583H28.5367V6.9848H30.261ZM29.2781 11.0832H30.1781C30.4009 11.0965 30.6237 11.06 30.8306 10.9763C31.0374 10.8926 31.223 10.7639 31.3738 10.5994C31.5246 10.4349 31.6368 10.2389 31.7023 10.0256C31.7678 9.81235 31.7849 9.58714 31.7524 9.3664C31.7825 9.14653 31.7637 8.92271 31.6972 8.71098C31.6307 8.49925 31.5182 8.30485 31.3677 8.14171C31.2173 7.97856 31.0326 7.85071 30.8269 7.76733C30.6213 7.68394 30.3997 7.64707 30.1781 7.65937H29.2781V11.0832Z" fill="white"/>
<path d="M33.3445 9.95547C33.3219 9.71874 33.349 9.47988 33.424 9.25423C33.4991 9.02857 33.6205 8.8211 33.7805 8.64511C33.9404 8.46913 34.1354 8.32851 34.3529 8.23229C34.5704 8.13607 34.8056 8.08637 35.0434 8.08637C35.2812 8.08637 35.5164 8.13607 35.7339 8.23229C35.9513 8.32851 36.1463 8.46913 36.3063 8.64511C36.4662 8.8211 36.5876 9.02857 36.6627 9.25423C36.7378 9.47988 36.7648 9.71874 36.7422 9.95547C36.7653 10.1924 36.7385 10.4316 36.6636 10.6577C36.5888 10.8837 36.4674 11.0915 36.3074 11.2679C36.1474 11.4442 35.9523 11.5851 35.7346 11.6815C35.5169 11.778 35.2815 11.8278 35.0434 11.8278C34.8053 11.8278 34.5698 11.778 34.3521 11.6815C34.1344 11.5851 33.9393 11.4442 33.7793 11.2679C33.6193 11.0915 33.498 10.8837 33.4231 10.6577C33.3482 10.4316 33.3215 10.1924 33.3445 9.95547V9.95547ZM36.0109 9.95547C36.0109 9.17462 35.6602 8.71798 35.0445 8.71798C34.4266 8.71798 34.0789 9.17462 34.0789 9.95548C34.0789 10.7426 34.4266 11.1957 35.0445 11.1957C35.6602 11.1957 36.0109 10.7395 36.0109 9.95547H36.0109Z" fill="white"/>
<path d="M41.2586 11.7582H40.5211L39.7766 9.10507H39.7203L38.9789 11.7582H38.2485L37.2555 8.15586H37.9766L38.6219 10.9047H38.675L39.4156 8.15586H40.0977L40.8383 10.9047H40.8946L41.5367 8.15586H42.2477L41.2586 11.7582Z" fill="white"/>
<path d="M43.0828 8.15585H43.7672V8.72812H43.8203C43.9105 8.52258 44.0625 8.35028 44.2552 8.23524C44.4478 8.12019 44.6716 8.06813 44.8953 8.08632C45.0706 8.07314 45.2466 8.09957 45.4103 8.16364C45.574 8.22772 45.7211 8.3278 45.8409 8.45648C45.9606 8.58515 46.0499 8.73912 46.102 8.90698C46.1542 9.07484 46.1679 9.25228 46.1422 9.42616V11.7582H45.4313V9.60469C45.4313 9.02578 45.1797 8.73789 44.6539 8.73789C44.5349 8.73234 44.4161 8.7526 44.3057 8.79726C44.1952 8.84193 44.0957 8.90994 44.014 8.99665C43.9323 9.08336 43.8704 9.18671 43.8323 9.29961C43.7943 9.41252 43.7812 9.53231 43.7938 9.65077V11.7582H43.0828L43.0828 8.15585Z" fill="white"/>
<path d="M47.275 6.7496H47.986V11.7582H47.275V6.7496Z" fill="white"/>
<path d="M48.9742 9.95547C48.9516 9.71872 48.9787 9.47985 49.0538 9.25419C49.1289 9.02852 49.2503 8.82104 49.4103 8.64505C49.5702 8.46906 49.7652 8.32845 49.9827 8.23223C50.2002 8.136 50.4354 8.0863 50.6733 8.0863C50.9111 8.0863 51.1463 8.136 51.3638 8.23223C51.5813 8.32845 51.7763 8.46906 51.9362 8.64505C52.0962 8.82104 52.2176 9.02852 52.2927 9.25419C52.3678 9.47985 52.3949 9.71872 52.3723 9.95547C52.3953 10.1925 52.3685 10.4316 52.2936 10.6577C52.2187 10.8837 52.0974 11.0915 51.9374 11.2679C51.7774 11.4442 51.5822 11.5851 51.3645 11.6815C51.1468 11.7779 50.9114 11.8277 50.6733 11.8277C50.4351 11.8277 50.1997 11.7779 49.982 11.6815C49.7643 11.5851 49.5691 11.4442 49.4091 11.2679C49.2491 11.0915 49.1278 10.8837 49.0529 10.6577C48.978 10.4316 48.9512 10.1925 48.9742 9.95547V9.95547ZM51.6406 9.95547C51.6406 9.17461 51.2898 8.71797 50.6742 8.71797C50.0563 8.71797 49.7086 9.17461 49.7086 9.95548C49.7086 10.7426 50.0563 11.1957 50.6742 11.1957C51.2898 11.1957 51.6406 10.7395 51.6406 9.95547H51.6406Z" fill="white"/>
<path d="M53.1207 10.7395C53.1207 10.091 53.6035 9.71719 54.4606 9.66406L55.4363 9.60781V9.29688C55.4363 8.91641 55.1848 8.70157 54.6988 8.70157C54.302 8.70157 54.027 8.84727 53.9481 9.10196H53.2598C53.3324 8.48321 53.9145 8.08633 54.7317 8.08633C55.6348 8.08633 56.1442 8.53593 56.1442 9.29688V11.7582H55.4598V11.252H55.4035C55.2894 11.4336 55.129 11.5816 54.9389 11.681C54.7488 11.7803 54.5358 11.8275 54.3215 11.8176C54.1703 11.8333 54.0174 11.8172 53.8728 11.7702C53.7282 11.7232 53.595 11.6465 53.4819 11.5449C53.3688 11.4433 53.2782 11.3192 53.216 11.1805C53.1538 11.0417 53.1213 10.8915 53.1207 10.7395V10.7395ZM55.4363 10.4316V10.1305L54.5567 10.1867C54.0606 10.2199 53.8356 10.3887 53.8356 10.7062C53.8356 11.0305 54.1168 11.2191 54.5036 11.2191C54.6169 11.2306 54.7313 11.2192 54.8401 11.1855C54.9489 11.1518 55.0499 11.0966 55.1369 11.0231C55.2239 10.9497 55.2953 10.8594 55.3467 10.7578C55.3982 10.6562 55.4286 10.5453 55.4363 10.4316V10.4316Z" fill="white"/>
<path d="M57.0785 9.95547C57.0785 8.81719 57.6637 8.0961 58.5738 8.0961C58.799 8.08572 59.0224 8.13964 59.218 8.25156C59.4136 8.36348 59.5734 8.52876 59.6785 8.7281H59.7317V6.7496H60.4426V11.7582H59.7613V11.189H59.7051C59.5918 11.387 59.4265 11.5503 59.2271 11.6611C59.0277 11.7718 58.8018 11.826 58.5738 11.8176C57.6574 11.8176 57.0785 11.0965 57.0785 9.95547ZM57.8129 9.95547C57.8129 10.7195 58.1731 11.1793 58.7754 11.1793C59.3746 11.1793 59.745 10.7129 59.745 9.9586C59.745 9.20782 59.3707 8.73477 58.7754 8.73477C58.177 8.73477 57.8129 9.19766 57.8129 9.95547H57.8129Z" fill="white"/>
<path d="M63.384 9.95547C63.3614 9.71874 63.3884 9.47988 63.4635 9.25423C63.5386 9.02857 63.66 8.8211 63.8199 8.64511C63.9799 8.46913 64.1749 8.32851 64.3923 8.23229C64.6098 8.13607 64.845 8.08637 65.0828 8.08637C65.3206 8.08637 65.5558 8.13607 65.7733 8.23229C65.9908 8.32851 66.1858 8.46913 66.3457 8.64511C66.5057 8.8211 66.6271 9.02857 66.7021 9.25423C66.7772 9.47988 66.8043 9.71874 66.7817 9.95547C66.8047 10.1924 66.778 10.4316 66.7031 10.6577C66.6282 10.8837 66.5069 11.0915 66.3469 11.2679C66.1869 11.4442 65.9918 11.5851 65.7741 11.6815C65.5564 11.778 65.3209 11.8278 65.0828 11.8278C64.8447 11.8278 64.6093 11.778 64.3916 11.6815C64.1739 11.5851 63.9787 11.4442 63.8188 11.2679C63.6588 11.0915 63.5374 10.8837 63.4626 10.6577C63.3877 10.4316 63.3609 10.1924 63.384 9.95547V9.95547ZM66.0504 9.95547C66.0504 9.17462 65.6996 8.71798 65.084 8.71798C64.466 8.71798 64.1184 9.17462 64.1184 9.95548C64.1184 10.7426 64.4661 11.1957 65.084 11.1957C65.6996 11.1957 66.0504 10.7395 66.0504 9.95547Z" fill="white"/>
<path d="M67.7356 8.15585H68.4199V8.72812H68.4731C68.5632 8.52258 68.7152 8.35028 68.9079 8.23524C69.1006 8.12019 69.3244 8.06813 69.5481 8.08632C69.7233 8.07314 69.8993 8.09957 70.063 8.16364C70.2267 8.22772 70.3739 8.3278 70.4936 8.45648C70.6134 8.58515 70.7026 8.73912 70.7548 8.90698C70.8069 9.07484 70.8207 9.25228 70.7949 9.42616V11.7582H70.084V9.60469C70.084 9.02578 69.8324 8.73789 69.3067 8.73789C69.1877 8.73234 69.0688 8.7526 68.9584 8.79726C68.848 8.84193 68.7485 8.90994 68.6668 8.99665C68.5851 9.08336 68.5231 9.18671 68.4851 9.29961C68.447 9.41252 68.4339 9.53231 68.4465 9.65077V11.7582H67.7356V8.15585Z" fill="white"/>
<path d="M74.8121 7.25898V8.17226H75.5926V8.7711H74.8121V10.6234C74.8121 11.0008 74.9676 11.166 75.3215 11.166C75.4121 11.1657 75.5026 11.1602 75.5926 11.1496V11.7418C75.4649 11.7646 75.3356 11.7768 75.2059 11.7781C74.4152 11.7781 74.1004 11.5 74.1004 10.8055V8.77106H73.5285V8.17223H74.1004V7.25898H74.8121Z" fill="white"/>
<path d="M76.5637 6.7496H77.2684V8.73476H77.3246C77.4191 8.5273 77.5753 8.35403 77.7719 8.23855C77.9684 8.12307 78.1958 8.07101 78.423 8.08945C78.5974 8.07996 78.7717 8.10907 78.9335 8.1747C79.0953 8.24034 79.2407 8.34088 79.3592 8.46915C79.4777 8.59742 79.5664 8.75026 79.619 8.91677C79.6717 9.08327 79.6869 9.25934 79.6636 9.43242V11.7582H78.952V9.6078C78.952 9.03241 78.684 8.741 78.1817 8.741C78.0595 8.73098 77.9366 8.74778 77.8216 8.79022C77.7065 8.83266 77.6022 8.89972 77.5158 8.98671C77.4294 9.0737 77.3631 9.17852 77.3214 9.29383C77.2797 9.40914 77.2638 9.53216 77.2747 9.65428V11.7582H76.5637L76.5637 6.7496Z" fill="white"/>
<path d="M83.809 10.7855C83.7124 11.1148 83.5031 11.3996 83.2178 11.5901C82.9324 11.7806 82.5892 11.8647 82.2481 11.8277C82.0107 11.834 81.7749 11.7885 81.5569 11.6945C81.3389 11.6005 81.1439 11.4602 80.9856 11.2832C80.8273 11.1063 80.7094 10.8971 80.64 10.67C80.5707 10.443 80.5515 10.2035 80.584 9.96836C80.5524 9.73245 80.5718 9.4925 80.641 9.26477C80.7102 9.03703 80.8275 8.82681 80.985 8.64836C81.1425 8.4699 81.3365 8.32736 81.5539 8.23039C81.7713 8.13343 82.0069 8.0843 82.2449 8.08633C83.2473 8.08633 83.852 8.77113 83.852 9.90233V10.1504H81.3082V10.1902C81.2971 10.3224 81.3137 10.4555 81.357 10.5809C81.4003 10.7063 81.4693 10.8213 81.5596 10.9184C81.65 11.0156 81.7596 11.0928 81.8815 11.1451C82.0034 11.1974 82.1349 11.2237 82.2676 11.2222C82.4376 11.2427 82.6099 11.212 82.7625 11.1343C82.9152 11.0565 83.0412 10.9351 83.1246 10.7855L83.809 10.7855ZM81.3082 9.62461H83.1277C83.1367 9.5037 83.1203 9.38226 83.0795 9.26809C83.0387 9.15391 82.9745 9.04953 82.891 8.96164C82.8075 8.87376 82.7065 8.80431 82.5946 8.75777C82.4827 8.71123 82.3622 8.68863 82.241 8.69141C82.118 8.68986 81.996 8.71295 81.8821 8.7593C81.7682 8.80566 81.6648 8.87435 81.5778 8.96132C81.4909 9.04829 81.4223 9.15178 81.376 9.2657C81.3297 9.37961 81.3066 9.50165 81.3082 9.62461H81.3082Z" fill="white"/>
</g>
<defs>
<clipPath id="clip0_262_1782">
<rect width="95.7313" height="32" fill="white"/>
</clipPath>
</defs>
</svg>
