<svg width="56" height="57" viewBox="0 0 56 57" fill="none" xmlns="http://www.w3.org/2000/svg">
<circle cx="28" cy="28.3301" r="27.5" stroke="#004822"/>
<path d="M28 39C34.0751 39 39 34.0751 39 28C39 21.9249 34.0751 17 28 17C21.9249 17 17 21.9249 17 28C17 34.0751 21.9249 39 28 39Z" stroke="#004822" stroke-width="2" stroke-linecap="round" stroke-linejoin="round"/>
<path d="M28 14.5V19.5" stroke="#004822" stroke-width="2" stroke-linecap="round" stroke-linejoin="round"/>
<path d="M14.5 28H19.5" stroke="#004822" stroke-width="2" stroke-linecap="round" stroke-linejoin="round"/>
<path d="M28 41.5V36.5" stroke="#004822" stroke-width="2" stroke-linecap="round" stroke-linejoin="round"/>
<path d="M41.5 28H36.5" stroke="#004822" stroke-width="2" stroke-linecap="round" stroke-linejoin="round"/>
<path d="M28 32C30.2091 32 32 30.2091 32 28C32 25.7909 30.2091 24 28 24C25.7909 24 24 25.7909 24 28C24 30.2091 25.7909 32 28 32Z" stroke="#004822" stroke-width="2" stroke-linecap="round" stroke-linejoin="round"/>
</svg>
