<svg width="80" height="80" viewBox="0 0 80 80" fill="none" xmlns="http://www.w3.org/2000/svg">
<circle cx="40" cy="40" r="39.5" stroke="#F1ECDA"/>
<path fill-rule="evenodd" clip-rule="evenodd" d="M33.1612 19.1236C33.6481 18.5712 34.4907 18.5181 35.0431 19.005L57.7264 38.9983C58.2789 39.4852 58.332 40.3278 57.845 40.8802C57.3581 41.4326 56.5156 41.4857 55.9632 40.9988L33.2798 21.0055C32.7274 20.5186 32.6743 19.676 33.1612 19.1236Z" fill="#F1ECDA"/>
<path fill-rule="evenodd" clip-rule="evenodd" d="M57.845 39.1236C58.332 39.676 58.2789 40.5186 57.7264 41.0055L35.0431 60.9988C34.4907 61.4857 33.6481 61.4326 33.1612 60.8802C32.6743 60.3278 32.7274 59.4852 33.2798 58.9983L55.9632 39.005C56.5156 38.5181 57.3581 38.5712 57.845 39.1236Z" fill="#F1ECDA"/>
<path fill-rule="evenodd" clip-rule="evenodd" d="M21.8253 19.1236C22.3122 18.5712 23.1547 18.5181 23.7072 19.005L46.3905 38.9983C46.9429 39.4852 46.996 40.3278 46.5091 40.8802C46.0222 41.4326 45.1797 41.4857 44.6272 40.9988L21.9439 21.0055C21.3915 20.5186 21.3384 19.676 21.8253 19.1236Z" fill="#F1ECDA"/>
<path fill-rule="evenodd" clip-rule="evenodd" d="M46.5091 39.1236C46.996 39.676 46.9429 40.5186 46.3905 41.0055L23.7072 60.9988C23.1547 61.4857 22.3122 61.4326 21.8253 60.8802C21.3384 60.3278 21.3915 59.4852 21.9439 58.9983L44.6272 39.005C45.1797 38.5181 46.0222 38.5712 46.5091 39.1236Z" fill="#F1ECDA"/>
</svg>
