<svg width="56" height="57" viewBox="0 0 56 57" fill="none" xmlns="http://www.w3.org/2000/svg">
<circle cx="28" cy="28.8105" r="27.5" stroke="#004822"/>
<path d="M39 22H17C16.4477 22 16 22.4477 16 23V39C16 39.5523 16.4477 40 17 40H39C39.5523 40 40 39.5523 40 39V23C40 22.4477 39.5523 22 39 22Z" stroke="#004822" stroke-width="2" stroke-linecap="round" stroke-linejoin="round"/>
<path d="M33 22V20C33 19.4696 32.7893 18.9609 32.4142 18.5858C32.0391 18.2107 31.5304 18 31 18H25C24.4696 18 23.9609 18.2107 23.5858 18.5858C23.2107 18.9609 23 19.4696 23 20V22" stroke="#004822" stroke-width="2" stroke-linecap="round" stroke-linejoin="round"/>
<path d="M40 28.7876C36.3529 30.8969 32.2132 32.0051 28 32.0001C23.7861 32.0111 19.6448 30.9024 16 28.7876" stroke="#004822" stroke-width="2" stroke-linecap="round" stroke-linejoin="round"/>
<path d="M26.5 28H29.5" stroke="#004822" stroke-width="2" stroke-linecap="round" stroke-linejoin="round"/>
</svg>
