<svg width="18" height="18" viewBox="0 0 18 18" fill="none" xmlns="http://www.w3.org/2000/svg">
<path d="M15.023 7.14779L9.39798 12.7728C9.34574 12.8251 9.2837 12.8666 9.21541 12.8949C9.14713 12.9232 9.07393 12.9378 9.00001 12.9378C8.92609 12.9378 8.85289 12.9232 8.7846 12.8949C8.71632 12.8666 8.65428 12.8251 8.60204 12.7728L2.97704 7.14779C2.87149 7.04225 2.81219 6.89909 2.81219 6.74982C2.81219 6.60056 2.87149 6.4574 2.97704 6.35186C3.08259 6.24631 3.22574 6.18701 3.37501 6.18701C3.52427 6.18701 3.66743 6.24631 3.77298 6.35186L9.00001 11.5796L14.227 6.35186C14.2793 6.29959 14.3413 6.25814 14.4096 6.22985C14.4779 6.20157 14.5511 6.18701 14.625 6.18701C14.6989 6.18701 14.7721 6.20157 14.8404 6.22985C14.9087 6.25814 14.9707 6.29959 15.023 6.35186C15.0752 6.40412 15.1167 6.46616 15.145 6.53445C15.1733 6.60273 15.1878 6.67591 15.1878 6.74982C15.1878 6.82373 15.1733 6.89692 15.145 6.9652C15.1167 7.03349 15.0752 7.09553 15.023 7.14779Z" fill="#236140"/>
</svg>
