<svg width="13" height="13" viewBox="0 0 13 13" fill="none" xmlns="http://www.w3.org/2000/svg">
<path d="M11.443 7.10376C11.3643 8.01922 11.0258 8.89315 10.4673 9.62275C9.9088 10.3523 9.15353 10.9072 8.29035 11.2222C7.42717 11.5371 6.49201 11.5989 5.59488 11.4004C4.69776 11.2019 3.876 10.7512 3.22629 10.1015C2.57658 9.4518 2.12595 8.63004 1.92742 7.73292C1.72889 6.83579 1.79072 5.90063 2.10564 5.03745C2.42055 4.17427 2.97545 3.419 3.70505 2.86048C4.43465 2.30197 5.30858 1.96346 6.22404 1.88477C6.2992 1.87851 6.37378 1.90236 6.43135 1.95108C6.48893 1.9998 6.5248 2.0694 6.53106 2.14456C6.53733 2.21973 6.51347 2.2943 6.46475 2.35188C6.41603 2.40946 6.34644 2.44533 6.27127 2.45159C5.4632 2.52079 4.69172 2.81937 4.04759 3.31218C3.40347 3.805 2.91352 4.47155 2.63539 5.23339C2.35727 5.99524 2.30254 6.82068 2.47765 7.61257C2.65277 8.40446 3.05043 9.12986 3.62385 9.7034C4.19728 10.2769 4.92259 10.6748 5.71445 10.85C6.50631 11.0253 7.33176 10.9708 8.09366 10.6928C8.85556 10.4148 9.52221 9.92499 10.0152 9.28097C10.5081 8.63695 10.8068 7.86553 10.8762 7.05747C10.8793 7.02026 10.8897 6.98401 10.9068 6.95081C10.9239 6.91762 10.9474 6.88811 10.9759 6.86399C11.0335 6.81527 11.1081 6.79142 11.1832 6.79768C11.2205 6.80078 11.2567 6.81118 11.2899 6.82829C11.3231 6.8454 11.3526 6.86888 11.3767 6.89739C11.4008 6.9259 11.4191 6.95888 11.4305 6.99445C11.4419 7.03003 11.4461 7.06749 11.443 7.10471V7.10376ZM6.34165 4.05758V6.70274C6.34165 6.7779 6.37151 6.84999 6.42466 6.90314C6.47781 6.95629 6.5499 6.98615 6.62506 6.98615H9.27022C9.34538 6.98615 9.41747 6.95629 9.47062 6.90314C9.52377 6.84999 9.55363 6.7779 9.55363 6.70274C9.55363 6.62757 9.52377 6.55549 9.47062 6.50234C9.41747 6.44919 9.34538 6.41933 9.27022 6.41933H6.90847V4.05758C6.90847 3.98242 6.87861 3.91033 6.82546 3.85718C6.77231 3.80403 6.70023 3.77417 6.62506 3.77417C6.5499 3.77417 6.47781 3.80403 6.42466 3.85718C6.37151 3.91033 6.34165 3.98242 6.34165 4.05758ZM8.13658 2.82947C8.23 2.82947 8.32133 2.80177 8.399 2.74987C8.47668 2.69796 8.53722 2.62419 8.57297 2.53788C8.60873 2.45157 8.61808 2.3566 8.59985 2.26497C8.58163 2.17334 8.53664 2.08918 8.47058 2.02312C8.40452 1.95706 8.32036 1.91207 8.22873 1.89385C8.1371 1.87562 8.04213 1.88498 7.95582 1.92073C7.86951 1.95648 7.79574 2.01702 7.74384 2.0947C7.69193 2.17238 7.66423 2.2637 7.66423 2.35712C7.66423 2.41915 7.67645 2.48057 7.70019 2.53788C7.72392 2.59519 7.75872 2.64726 7.80258 2.69112C7.89116 2.77971 8.0113 2.82947 8.13658 2.82947ZM9.83704 3.96311C9.93046 3.96311 10.0218 3.93541 10.0995 3.88351C10.1771 3.8316 10.2377 3.75783 10.2734 3.67152C10.3092 3.58521 10.3185 3.49024 10.3003 3.39861C10.2821 3.30698 10.2371 3.22282 10.171 3.15676C10.105 3.0907 10.0208 3.04571 9.92919 3.02749C9.83756 3.00926 9.74259 3.01862 9.65628 3.05437C9.56997 3.09012 9.4962 3.15066 9.44429 3.22834C9.39239 3.30602 9.36469 3.39734 9.36469 3.49076C9.36469 3.61604 9.41445 3.73618 9.50304 3.82476C9.59162 3.91335 9.71176 3.96311 9.83704 3.96311ZM10.9707 5.66357C11.0641 5.66357 11.1554 5.63587 11.2331 5.58396C11.3108 5.53206 11.3713 5.45829 11.4071 5.37198C11.4428 5.28567 11.4522 5.1907 11.434 5.09907C11.4157 5.00744 11.3707 4.92328 11.3047 4.85722C11.2386 4.79116 11.1545 4.74617 11.0628 4.72795C10.9712 4.70972 10.8762 4.71907 10.7899 4.75483C10.7036 4.79058 10.6298 4.85112 10.5779 4.9288C10.526 5.00647 10.4983 5.0978 10.4983 5.19122C10.4983 5.31649 10.5481 5.43664 10.6367 5.52522C10.7253 5.6138 10.8454 5.66357 10.9707 5.66357Z" fill="#236140"/>
</svg>
