<svg width="32" height="32" viewBox="0 0 32 32" fill="none" xmlns="http://www.w3.org/2000/svg">
<path d="M30.7128 9.71262L26.9378 13.4751C26.1878 22.2126 18.8128 29.0001 10.0003 29.0001C8.18783 29.0001 6.68783 28.7126 5.55033 28.1501C4.63783 27.6876 4.26283 27.2001 4.16283 27.0501C4.08009 26.9244 4.02678 26.7817 4.00686 26.6326C3.98694 26.4835 4.00093 26.3318 4.04779 26.1888C4.09465 26.0458 4.17317 25.9152 4.27749 25.8068C4.38182 25.6984 4.50926 25.6149 4.65033 25.5626C4.67533 25.5501 7.62533 24.4251 9.53783 22.2626C8.35176 21.4181 7.30927 20.3883 6.45033 19.2126C4.73783 16.8876 2.92533 12.8501 4.01283 6.82512C4.04702 6.646 4.12894 6.47944 4.24995 6.34303C4.37097 6.20662 4.52657 6.10542 4.70033 6.05012C4.87465 5.99304 5.06131 5.985 5.23989 6.02689C5.41846 6.06878 5.58208 6.15898 5.71283 6.28762C5.75033 6.33762 9.91283 10.4376 15.0003 11.7626V11.0001C15.0052 10.2073 15.1663 9.42313 15.4742 8.6925C15.7822 7.96188 16.231 7.29906 16.7952 6.74191C17.3593 6.18475 18.0276 5.74417 18.762 5.44531C19.4964 5.14645 20.2825 4.99518 21.0753 5.00012C22.1159 5.01496 23.135 5.29909 24.0331 5.82484C24.9313 6.35059 25.6779 7.10002 26.2003 8.00012H30.0003C30.1978 7.9995 30.3909 8.05733 30.5556 8.16633C30.7202 8.27533 30.8488 8.43062 30.9253 8.61262C30.9974 8.79733 31.0157 8.99866 30.9781 9.19333C30.9404 9.38799 30.8485 9.56803 30.7128 9.71262Z" fill="#D5E27B"/>
</svg>
