<svg width="40" height="41" viewBox="0 0 40 41" fill="none" xmlns="http://www.w3.org/2000/svg">
<path d="M32.8 9.33071L28.4706 16.8601C30.5412 16.8601 32.3137 17.5974 33.7882 19.0719C35.2627 20.5464 36 22.3189 36 24.3895C36 26.4601 35.2627 28.2327 33.7882 29.7072C32.3137 31.1817 30.5412 31.9189 28.4706 31.9189C26.4 31.9189 24.6274 31.1817 23.1529 29.7072C21.6784 28.2327 20.9412 26.4601 20.9412 24.3895C20.9412 23.668 21.0275 23.0013 21.2 22.3895C21.3725 21.7778 21.6314 21.1895 21.9765 20.6248L28.4706 9.33071H32.8ZM15.8588 9.33071L11.5294 16.8601C13.6 16.8601 15.3725 17.5974 16.8471 19.0719C18.3216 20.5464 19.0588 22.3189 19.0588 24.3895C19.0588 26.4601 18.3216 28.2327 16.8471 29.7072C15.3725 31.1817 13.6 31.9189 11.5294 31.9189C9.45882 31.9189 7.68628 31.1817 6.21177 29.7072C4.73726 28.2327 4 26.4601 4 24.3895C4 23.668 4.08627 23.0013 4.25882 22.3895C4.43137 21.7778 4.6902 21.1895 5.03529 20.6248L11.5294 9.33071H15.8588Z" fill="#D5E27B"/>
</svg>
