<svg width="56" height="57" viewBox="0 0 56 57" fill="none" xmlns="http://www.w3.org/2000/svg">
<circle cx="28" cy="28.1504" r="27.5" stroke="#004822"/>
<path d="M42.0875 27.2251L39 28.7626L35 21.1126L38.125 19.5501C38.3572 19.4317 38.6269 19.41 38.8751 19.4896C39.1233 19.5692 39.3299 19.7437 39.45 19.9751L42.525 25.8626C42.5874 25.9804 42.6255 26.1096 42.6372 26.2424C42.6489 26.3752 42.634 26.509 42.5932 26.636C42.5525 26.7629 42.4867 26.8805 42.3999 26.9816C42.313 27.0828 42.2068 27.1656 42.0875 27.2251V27.2251Z" stroke="#004822" stroke-width="2" stroke-linecap="round" stroke-linejoin="round"/>
<path d="M16.9998 28.6375L13.9123 27.0875C13.7934 27.0292 13.6875 26.9477 13.6007 26.8476C13.514 26.7476 13.4483 26.6311 13.4075 26.5052C13.3667 26.3793 13.3516 26.2464 13.3631 26.1145C13.3747 25.9826 13.4127 25.8544 13.4748 25.7375L16.5498 19.85C16.6701 19.6188 16.8759 19.4437 17.1234 19.3619C17.3709 19.2802 17.6405 19.2984 17.8748 19.4125L20.9998 20.975L16.9998 28.6375Z" stroke="#004822" stroke-width="2" stroke-linecap="round" stroke-linejoin="round"/>
<path d="M39 28.7627L37 31.1127L32.4 35.7127C32.2746 35.8299 32.1227 35.915 31.9573 35.9608C31.7918 36.0065 31.6178 36.0114 31.45 35.9752L24.2 34.1627C24.0676 34.1258 23.9442 34.0619 23.8375 33.9752L17 28.6377" stroke="#004822" stroke-width="2" stroke-linecap="round" stroke-linejoin="round"/>
<path d="M36.9982 31.1123L31.4982 27.1123L29.8982 28.3123C29.205 28.8297 28.3631 29.1092 27.4982 29.1092C26.6332 29.1092 25.7914 28.8297 25.0982 28.3123L24.4232 27.7998C24.309 27.713 24.2146 27.603 24.1462 27.477C24.0777 27.351 24.0369 27.2119 24.0262 27.0689C24.0156 26.9259 24.0354 26.7823 24.0845 26.6476C24.1335 26.5128 24.2106 26.39 24.3107 26.2873L29.2107 21.3998C29.3027 21.3082 29.4119 21.2357 29.532 21.1863C29.6521 21.137 29.7808 21.1119 29.9107 21.1123H34.9982" stroke="#004822" stroke-width="2" stroke-linecap="round" stroke-linejoin="round"/>
<path d="M21.0742 20.9753L27.4867 19.1003C27.7146 19.0349 27.9582 19.0526 28.1742 19.1503L32.4992 21.1128" stroke="#004822" stroke-width="2" stroke-linecap="round" stroke-linejoin="round"/>
<path d="M26 38.6125L22.2375 37.6625C22.0842 37.6279 21.9422 37.5547 21.825 37.45L19 35" stroke="#004822" stroke-width="2" stroke-linecap="round" stroke-linejoin="round"/>
</svg>
