<svg width="32" height="32" viewBox="0 0 32 32" fill="none" xmlns="http://www.w3.org/2000/svg">
<path d="M28.9992 15.9999C28.9927 19.1761 27.8271 22.2406 25.7211 24.6181C23.6152 26.9957 20.7138 28.5227 17.5616 28.9124C17.4913 28.9194 17.4203 28.9116 17.3531 28.8898C17.2859 28.8679 17.2239 28.8324 17.1711 28.7854C17.1182 28.7385 17.0757 28.6811 17.0461 28.6169C17.0165 28.5527 17.0005 28.4831 16.9991 28.4124V18.9999H19.9991C20.1359 19.0002 20.2713 18.9724 20.3968 18.9183C20.5224 18.8642 20.6356 18.7849 20.7293 18.6853C20.823 18.5857 20.8953 18.468 20.9417 18.3394C20.9882 18.2107 21.0077 18.0739 20.9991 17.9374C20.977 17.6789 20.8576 17.4383 20.6651 17.2643C20.4725 17.0903 20.2211 16.9958 19.9616 16.9999H16.9991V13.9999C16.9991 13.4695 17.2099 12.9608 17.5849 12.5857C17.96 12.2107 18.4687 11.9999 18.9991 11.9999H20.9991C21.1359 12.0002 21.2713 11.9724 21.3968 11.9183C21.5224 11.8642 21.6356 11.7849 21.7293 11.6853C21.823 11.5857 21.8953 11.468 21.9417 11.3394C21.9882 11.2107 22.0077 11.0739 21.9991 10.9374C21.977 10.6789 21.8576 10.4383 21.6651 10.2643C21.4725 10.0903 21.2211 9.99584 20.9616 9.99995H18.9991C17.9383 9.99995 16.9209 10.4214 16.1707 11.1715C15.4206 11.9217 14.9991 12.9391 14.9991 13.9999V16.9999H11.9991C11.8624 16.9997 11.727 17.0275 11.6015 17.0816C11.4759 17.1357 11.3627 17.215 11.269 17.3146C11.1753 17.4142 11.103 17.5319 11.0566 17.6605C11.0101 17.7892 10.9906 17.926 10.9991 18.0624C11.0213 18.321 11.1407 18.5616 11.3332 18.7356C11.5258 18.9096 11.7772 19.0041 12.0366 18.9999H14.9991V28.4124C14.9995 28.4825 14.9851 28.5519 14.9569 28.6161C14.9287 28.6803 14.8874 28.7378 14.8355 28.7849C14.7836 28.8321 14.7224 28.8678 14.6559 28.8898C14.5893 28.9117 14.5189 28.9195 14.4491 28.9124C7.84915 28.1124 2.74915 22.3749 3.01165 15.5124C3.159 12.1234 4.62521 8.92624 7.09732 6.60333C9.56942 4.28042 12.8516 3.01581 16.2432 3.07944C19.6348 3.14306 22.8673 4.52988 25.2505 6.94387C27.6337 9.35785 28.979 12.6078 28.9992 15.9999Z" fill="#D5E27B"/>
</svg>
