<svg width="32" height="32" viewBox="0 0 32 32" fill="none" xmlns="http://www.w3.org/2000/svg">
<path d="M29.2875 8.725C29.1726 8.26416 28.9477 7.83804 28.632 7.48318C28.3163 7.12832 27.9193 6.85529 27.475 6.6875C23.2 5.0375 16.375 5.05 16 5.05C15.625 5.05 8.8 5.0375 4.525 6.6875C4.08068 6.85529 3.68366 7.12832 3.36799 7.48318C3.05231 7.83804 2.82739 8.26416 2.7125 8.725C2.3875 9.9625 2 12.2375 2 16C2 19.7625 2.3875 22.0375 2.7125 23.275C2.82739 23.7358 3.05231 24.162 3.36799 24.5168C3.68366 24.8717 4.08068 25.1447 4.525 25.3125C8.625 26.9 15.05 26.95 15.9125 26.95H16.0875C16.95 26.95 23.375 26.9 27.475 25.3125C27.9193 25.1447 28.3163 24.8717 28.632 24.5168C28.9477 24.162 29.1726 23.7358 29.2875 23.275C29.6125 22.0375 30 19.7625 30 16C30 12.2375 29.6125 9.9625 29.2875 8.725ZM20.275 16.4125L14.275 20.4125C14.1954 20.4711 14.0988 20.5018 14 20.5C13.9172 20.4969 13.8361 20.4756 13.7625 20.4375C13.6826 20.3959 13.6158 20.3331 13.5694 20.2558C13.5231 20.1786 13.4991 20.0901 13.5 20V12C13.4991 11.9099 13.5231 11.8214 13.5694 11.7442C13.6158 11.6669 13.6826 11.6041 13.7625 11.5625C13.8422 11.52 13.932 11.4998 14.0222 11.5042C14.1124 11.5086 14.1998 11.5374 14.275 11.5875L20.275 15.5875C20.3447 15.6314 20.4022 15.6923 20.442 15.7644C20.4818 15.8366 20.5027 15.9176 20.5027 16C20.5027 16.0824 20.4818 16.1634 20.442 16.2356C20.4022 16.3077 20.3447 16.3686 20.275 16.4125Z" fill="#D5E27B"/>
</svg>
