<svg width="274" height="150" viewBox="0 0 274 150" fill="none" xmlns="http://www.w3.org/2000/svg">
<path d="M59.8477 85.6392H76.6589V80.5957H65.9715V75.7885H75.0207V70.6661H65.9715V66.0954H76.6199V61.0518H59.8477V85.6392ZM109.774 66.2136C107.239 66.2136 105.367 67.041 103.963 69.1294H103.846L103.144 66.8046H98.6189V92.4165H104.431V84.3389H104.548C105.601 85.6392 107.317 86.2303 109.54 86.2303C114.65 86.2303 118.356 81.7777 118.356 76.4977V75.7885C118.239 69.8386 114.065 66.2136 109.774 66.2136ZM108.253 81.3049C105.601 81.3049 104.314 78.9801 104.314 76.1431C104.314 73.3455 105.601 71.0995 108.253 71.0995C110.906 71.0995 112.193 73.4243 112.193 76.2613C112.076 79.0983 110.906 81.3049 108.253 81.3049ZM138.131 75.5915C138.131 69.287 133.724 66.2136 128.848 66.2136C123.504 66.2136 119.214 70.0751 119.214 76.0643V76.6554C119.214 82.7234 123.855 86.3879 129.043 86.3879C133.334 86.3879 137.156 84.2995 138.092 79.9652H132.631C132.046 81.5019 130.759 81.9354 129.277 81.9354C126.859 81.9354 125.455 80.1622 125.22 77.8375H138.092C138.053 77.207 138.131 76.3007 138.131 75.5915ZM125.298 73.8183C125.65 71.8482 126.703 70.3115 129.004 70.3115C130.954 70.3115 132.241 71.73 132.241 73.8183H125.298ZM150.418 66.2136C148 66.2136 146.244 67.1592 144.84 69.2476H144.723L144.021 66.8046H139.496V85.6392H145.386V74.6458C145.386 72.2028 146.556 71.0207 148.39 71.0207C150.028 71.0207 151.276 72.0846 151.276 74.6458V85.6392H157.166V72.8727C157.166 69.2476 154.943 66.2136 150.418 66.2136ZM166.059 73.4637C165.006 73.2273 164.421 72.7545 164.421 71.6906C164.421 70.8631 165.006 70.1539 166.371 70.1539C167.892 70.1539 168.555 70.8631 168.555 72.124H173.899V71.6512C173.899 67.6715 170.311 66.0166 166.254 66.0166C162.666 66.0166 158.609 67.5533 158.609 71.9664V72.321C158.609 73.6213 159.077 74.8822 160.013 75.8279C161.885 77.7192 164.772 77.9163 166.605 78.3891C168.243 78.8619 168.555 79.5712 168.555 80.3592C168.555 81.5413 167.619 82.1324 166.371 82.1324C164.733 82.1324 163.836 81.1867 163.719 79.453H158.375V79.9258C158.609 84.4965 162.08 86.2303 166.371 86.2303C170.194 86.2303 174.367 84.4571 174.367 80.044V79.6894C174.367 78.3891 173.899 77.1282 173.08 76.1825C171.286 74.173 168.399 73.8183 166.059 73.4637ZM175.459 66.6864H181.349V85.521H175.459V66.6864ZM97.3707 66.6864H90.8959L87.7754 71.4936L84.655 66.6864H77.9461L84.304 75.7097L76.971 85.6392H83.5629L87.5024 79.8864L91.4419 85.6392H98.1508L90.9739 75.4733L97.3707 66.6864ZM178.463 57.5449C176.512 57.5449 174.991 59.1998 174.991 61.0518C174.991 62.9431 176.629 64.5586 178.463 64.5586C180.413 64.5586 181.934 62.9037 181.934 61.0518C181.934 59.1998 180.335 57.5449 178.463 57.5449ZM192.037 66.6864V66.0954C192.037 64.4404 193.09 62.9431 194.923 62.8249C195.157 62.8249 196.678 62.8249 196.678 62.8249V57.5449H194.494C189.384 57.6631 186.147 61.5246 186.147 66.45V66.6864H182.675V71.2572H186.147V85.6392H192.037V71.2572H195.859L200.852 84.3783L197.497 92.4559H203.621L214.153 66.7258H208.029L203.972 78.0739L200.267 66.7258H192.037V66.6864ZM59.8477 85.6392H76.6589V80.5957H65.9715V75.7885H75.0207V70.6661H65.9715V66.0954H76.6199V61.0518H59.8477V85.6392ZM109.774 66.2136C107.239 66.2136 105.367 67.041 103.963 69.1294H103.846L103.144 66.8046H98.6189V92.4165H104.431V84.3389H104.548C105.601 85.6392 107.317 86.2303 109.54 86.2303C114.65 86.2303 118.356 81.7777 118.356 76.4977V75.7885C118.239 69.8386 114.065 66.2136 109.774 66.2136ZM108.253 81.3049C105.601 81.3049 104.314 78.9801 104.314 76.1431C104.314 73.3455 105.601 71.0995 108.253 71.0995C110.906 71.0995 112.193 73.4243 112.193 76.2613C112.076 79.0983 110.906 81.3049 108.253 81.3049ZM138.131 75.5915C138.131 69.287 133.724 66.2136 128.848 66.2136C123.504 66.2136 119.214 70.0751 119.214 76.0643V76.6554C119.214 82.7234 123.855 86.3879 129.043 86.3879C133.334 86.3879 137.156 84.2995 138.092 79.9652H132.631C132.046 81.5019 130.759 81.9354 129.277 81.9354C126.859 81.9354 125.455 80.1622 125.22 77.8375H138.092C138.053 77.207 138.131 76.3007 138.131 75.5915ZM125.298 73.8183C125.65 71.8482 126.703 70.3115 129.004 70.3115C130.954 70.3115 132.241 71.73 132.241 73.8183H125.298ZM150.418 66.2136C148 66.2136 146.244 67.1592 144.84 69.2476H144.723L144.021 66.8046H139.496V85.6392H145.386V74.6458C145.386 72.2028 146.556 71.0207 148.39 71.0207C150.028 71.0207 151.276 72.0846 151.276 74.6458V85.6392H157.166V72.8727C157.166 69.2476 154.943 66.2136 150.418 66.2136ZM166.059 73.4637C165.006 73.2273 164.421 72.7545 164.421 71.6906C164.421 70.8631 165.006 70.1539 166.371 70.1539C167.892 70.1539 168.555 70.8631 168.555 72.124H173.899V71.6512C173.899 67.6715 170.311 66.0166 166.254 66.0166C162.666 66.0166 158.609 67.5533 158.609 71.9664V72.321C158.609 73.6213 159.077 74.8822 160.013 75.8279C161.885 77.7192 164.772 77.9163 166.605 78.3891C168.243 78.8619 168.555 79.5712 168.555 80.3592C168.555 81.5413 167.619 82.1324 166.371 82.1324C164.733 82.1324 163.836 81.1867 163.719 79.453H158.375V79.9258C158.609 84.4965 162.08 86.2303 166.371 86.2303C170.194 86.2303 174.367 84.4571 174.367 80.044V79.6894C174.367 78.3891 173.899 77.1282 173.08 76.1825C171.286 74.173 168.399 73.8183 166.059 73.4637ZM175.459 66.6864H181.349V85.521H175.459V66.6864ZM97.3707 66.6864H90.8959L87.7754 71.4936L84.655 66.6864H77.9461L84.304 75.7097L76.971 85.6392H83.5629L87.5024 79.8864L91.4419 85.6392H98.1508L90.9739 75.4733L97.3707 66.6864ZM178.463 57.5449C176.512 57.5449 174.991 59.1998 174.991 61.0518C174.991 62.9431 176.629 64.5586 178.463 64.5586C180.413 64.5586 181.934 62.9037 181.934 61.0518C181.934 59.1998 180.335 57.5449 178.463 57.5449ZM192.037 66.6864V66.0954C192.037 64.4404 193.09 62.9431 194.923 62.8249C195.157 62.8249 196.678 62.8249 196.678 62.8249V57.5449H194.494C189.384 57.6631 186.147 61.5246 186.147 66.45V66.6864H182.675V71.2572H186.147V85.6392H192.037V71.2572H195.859L200.852 84.3783L197.497 92.4559H203.621L214.153 66.7258H208.029L203.972 78.0739L200.267 66.7258H192.037V66.6864Z" fill="black"/>
</svg>
