<svg width="273" height="150" viewBox="0 0 273 150" fill="none" xmlns="http://www.w3.org/2000/svg">
<path d="M99.2577 74.9362L111.629 62.7037C112.007 62.3293 112.26 61.695 112.26 61.2063C112.261 60.9112 112.202 60.6188 112.089 60.3461C111.975 60.0733 111.807 59.8254 111.596 59.6167C111.385 59.4081 111.134 59.2426 110.858 59.13C110.582 59.0173 110.287 58.9596 109.988 58.9602C109.357 58.9602 108.852 59.2101 108.347 59.5845L95.9744 71.8158L83.6011 59.5845C83.2224 59.2101 82.5807 58.9602 82.0864 58.9602C81.7879 58.9596 81.4922 59.0173 81.2163 59.13C80.9404 59.2426 80.6897 59.4081 80.4786 59.6167C80.2675 59.8254 80.1001 60.0733 79.9862 60.3461C79.8722 60.6188 79.8139 60.9112 79.8145 61.2063C79.8145 61.8306 80.0673 62.3293 80.4459 62.8292L92.8182 75.0617L80.4459 87.2942C79.9414 87.6685 79.8145 88.3029 79.8145 88.9171C79.8139 89.2122 79.8722 89.5045 79.9862 89.7773C80.1001 90.0501 80.2675 90.2979 80.4786 90.5066C80.6897 90.7153 80.9404 90.8807 81.2163 90.9934C81.4922 91.1061 81.7879 91.1638 82.0864 91.1632C82.7179 91.1632 83.2224 90.9132 83.6011 90.5389L95.9744 78.3053L108.347 90.5366C108.851 91.0354 109.367 91.1609 109.988 91.1609C110.287 91.1615 110.582 91.1038 110.858 90.9912C111.134 90.8785 111.385 90.7131 111.596 90.5044C111.807 90.2957 111.975 90.0479 112.089 89.7751C112.202 89.5023 112.261 89.21 112.26 88.9148C112.26 88.2905 112.007 87.7918 111.629 87.4174L99.2577 74.9362ZM160.614 74.9362C160.614 83.7972 167.938 91.0365 176.9 91.0365C185.862 91.0365 193.186 83.7972 193.186 74.9362C193.186 66.0751 185.862 58.8369 176.9 58.8369C167.938 58.8369 160.614 66.0751 160.614 74.9362ZM165.285 74.9362C165.285 68.57 170.462 63.3291 177.026 63.3291C183.465 63.3291 188.767 68.4467 188.767 74.9362C188.767 81.4256 183.591 86.5432 177.026 86.5432C170.461 86.5432 165.297 81.3023 165.297 74.9362H165.285ZM159.477 59.2113H158.834C156.814 59.2113 154.795 59.8356 153.166 61.083C152.913 60.0743 152.03 59.3346 151.02 59.3346C149.757 59.3346 148.874 60.3433 148.874 61.4562V88.5382C148.873 88.8334 148.931 89.1257 149.045 89.3985C149.159 89.6713 149.327 89.9191 149.538 90.1278C149.749 90.3365 149.999 90.5019 150.275 90.6146C150.551 90.7272 150.847 90.7849 151.145 90.7843C151.747 90.7826 152.324 90.5454 152.75 90.1245C153.176 89.7037 153.416 89.1334 153.417 88.5382V71.9503C153.417 66.4584 153.922 64.2123 158.72 63.5891H159.604C160.867 63.5891 161.876 62.7149 161.876 61.4674C161.763 60.0945 160.74 59.2214 159.477 59.2214V59.2113ZM144.201 71.9436C143.181 67.4604 140.792 63.8312 137.006 61.4596C131.451 57.9649 124.127 58.2149 118.826 61.9584C114.533 64.9543 112.009 70.0707 112.009 75.1883C112.009 76.4369 112.122 77.811 112.513 79.0574C114.166 85.4202 119.721 90.2867 126.274 91.0264C128.216 91.2736 130.188 91.1465 132.081 90.6521C133.723 90.2777 135.49 89.529 137.005 88.6548C138.646 87.6461 139.907 86.2832 141.171 84.7858L141.284 84.6737C142.169 83.5507 142.042 82.051 141.032 81.3034C140.274 80.6792 138.886 80.4292 137.75 81.8022C137.497 82.1766 137.245 82.4265 136.992 82.8109C136.087 83.8447 135.022 84.7296 133.836 85.4325C132.194 86.3067 130.301 86.8055 128.408 86.8055C121.968 86.6934 118.56 82.3223 117.297 79.0674C117.044 78.4432 116.919 77.8189 116.793 77.1957V76.8213H140.034C143.064 76.7093 144.705 74.4497 144.2 71.9537L144.201 71.9436ZM116.932 72.318V72.068C118.195 67.076 122.866 63.3313 128.294 63.3313C133.85 63.3313 138.52 67.2004 139.783 72.318H116.932Z" fill="#54B7EA"/>
</svg>
