<svg width="275" height="150" viewBox="0 0 275 150" fill="none" xmlns="http://www.w3.org/2000/svg">
<path d="M178.885 60.7101C172.288 60.7101 166.919 66.0577 166.919 72.6625C166.919 79.2495 172.288 84.6148 178.885 84.6148C185.464 84.6148 190.834 79.2495 190.834 72.6625C190.834 66.0577 185.464 60.7101 178.885 60.7101ZM178.885 78.9485C175.418 78.9485 172.591 76.1331 172.591 72.6625C172.591 69.1919 175.418 66.3764 178.885 66.3764C182.352 66.3764 185.179 69.1919 185.179 72.6625C185.162 76.1331 182.334 78.9485 178.885 78.9485ZM143.679 70.2366L141.599 69.1919C140.692 68.7492 140.123 68.395 139.892 68.1294C139.678 67.8992 139.554 67.5982 139.554 67.2795C139.554 66.8722 139.732 66.5358 140.087 66.2702C140.443 66.0046 140.941 65.8629 141.599 65.8629C142.772 65.8629 144.07 66.5712 145.511 67.9878L149.031 64.464C148.16 63.2776 147.022 62.3392 145.724 61.6663C144.444 61.0288 143.003 60.6924 141.563 60.6924C139.412 60.6924 137.634 61.3299 136.247 62.6048C134.86 63.8797 134.166 65.4202 134.166 67.2086C134.166 69.9887 135.998 72.3083 139.678 74.1676L141.599 75.1238C143.252 75.956 144.07 76.8059 144.07 77.6913C144.07 78.1694 143.839 78.5767 143.395 78.9485C142.932 79.3027 142.328 79.4797 141.581 79.4797C140.888 79.4797 140.087 79.2318 139.198 78.7537C138.309 78.2756 137.509 77.6382 136.851 76.8591L133.349 80.6838C135.322 83.2691 137.972 84.5794 141.279 84.5794C143.768 84.5794 145.759 83.9065 147.235 82.5431C148.711 81.1973 149.458 79.5151 149.458 77.4965C149.458 75.9737 149.049 74.6634 148.231 73.5301C147.378 72.4323 145.866 71.3344 143.679 70.2366ZM108.189 82.0119V61.1705H102.517V62.5694C100.614 61.3476 98.3738 60.6924 96.1157 60.6924C89.5368 60.6924 84.167 66.04 84.167 72.6448C84.167 79.2318 89.5368 84.5971 96.1157 84.5971C98.356 84.5971 100.561 83.9774 102.463 82.7733C102.463 82.9503 102.463 83.1097 102.463 83.2337C102.463 86.7043 99.6362 89.5197 96.169 89.5197C94.9955 89.5197 93.8397 89.1833 92.844 88.5635L90.0346 93.4861C91.8838 94.6017 94.0175 95.2037 96.1868 95.2037C102.783 95.2037 108.224 89.8384 108.224 83.2514C108.189 83.0035 108.207 82.2598 108.189 82.0119ZM96.0979 78.9485C92.6306 78.9485 89.8035 76.1331 89.8035 72.6625C89.8035 69.1919 92.6306 66.3764 96.0979 66.3764C99.5651 66.3764 102.392 69.1919 102.392 72.6625C102.392 76.1331 99.5651 78.9485 96.0979 78.9485ZM130.788 61.1705H125.08V72.5385C125.08 74.1499 125.08 76.9476 123.889 78.134C123.32 78.7006 122.698 79.2141 121.382 79.2141C120.066 79.2141 119.444 78.7006 118.875 78.134C117.684 76.9476 117.684 74.1499 117.701 72.5385V61.1705H112.012V72.5031C111.994 74.8404 111.976 79.1787 114.821 82.065C116.492 83.7472 118.484 84.6148 121.382 84.6148C124.28 84.6148 126.272 83.7649 127.943 82.065C130.806 79.1787 130.77 74.8404 130.753 72.5031L130.788 61.1705ZM163.096 77.9392C162.633 78.2933 161.531 79.0548 160.286 78.8777C159.255 78.736 158.419 77.9923 158.295 75.4779V66.04H164.998V61.1528H158.295V54.7959H152.605V56.0531V74.7342C152.605 77.709 153.352 84.6148 160.286 84.6148C163.789 84.5617 165.905 82.667 166.794 81.9233L166.919 81.8348L163.505 77.6382C163.487 77.6382 163.256 77.833 163.096 77.9392Z" fill="#E26751"/>
</svg>
