<svg width="274" height="150" viewBox="0 0 274 150" fill="none" xmlns="http://www.w3.org/2000/svg">
<path d="M63.6785 94.049C75.6519 94.049 85.3578 84.343 85.3578 72.3697C85.3578 60.3971 75.6519 50.6912 63.6785 50.6912C51.7059 50.6912 42 60.3971 42 72.3697C42 84.343 51.7059 94.049 63.6785 94.049Z" fill="#2CA01C"/>
<path d="M56.4501 63.9376C51.7913 63.9376 48.0195 67.715 48.0195 72.3689C48.0195 77.0221 51.7913 80.7988 56.4501 80.7988H57.6543V77.6676H56.4494C55.0444 77.6666 53.6972 77.1081 52.7038 76.1146C51.7103 75.1211 51.1517 73.7739 51.1508 72.3689C51.1508 69.4448 53.5253 67.0689 56.4494 67.0689H59.3453V83.4488C59.3455 84.279 59.6754 85.0752 60.2625 85.6623C60.8495 86.2493 61.6457 86.5792 62.4759 86.5794V63.9383H56.4494L56.4501 63.9376ZM70.9121 80.7988C75.5702 80.7988 79.3427 77.0221 79.3427 72.3682C79.3427 67.715 75.571 63.9383 70.9121 63.9383H69.7079V67.0696H70.9128C73.8369 67.0696 76.2114 69.4448 76.2114 72.3689C76.2114 75.293 73.8369 77.669 70.9128 77.669H68.0169V61.2883C68.0167 60.458 67.6867 59.6617 67.0995 59.0747C66.5123 58.4876 65.716 58.1578 64.8856 58.1578V80.7995H70.9128V80.7981L70.9121 80.7988Z" fill="white"/>
<path d="M105.947 99.3089H102.593V90.8156H102.537C101.669 92.1543 99.9634 92.9928 98.0941 92.9928C94.0138 92.9928 91.499 89.7509 91.499 85.8389C91.499 81.9263 94.1822 78.7957 98.0074 78.7957C100.464 78.7957 101.977 79.995 102.647 81.0596H102.728V79.1854H105.941V99.3082L105.947 99.3089ZM98.7684 90.1983C101.225 90.1983 102.709 87.9929 102.709 85.8967C102.709 83.8012 101.23 81.5373 98.7684 81.5373C96.172 81.5373 94.9142 83.7442 94.9142 85.8397C94.9093 87.9351 96.167 90.1997 98.7684 90.1997V90.1983ZM121.001 92.6024H117.817V90.4492H117.759C117.172 91.7879 115.582 92.9928 113.597 92.9928C110.104 92.9928 108.649 90.3082 108.649 87.573V79.1903H112.002V86.6239C112.002 88.2191 112.364 90.1983 114.516 90.1983C116.67 90.1983 117.648 88.3537 117.648 86.5661V79.1903H121V92.6024H121.001ZM124.37 78.8972H127.723V92.3093H124.37V78.8972ZM140.259 82.9057C139.729 82.1489 138.582 81.5902 137.493 81.5902C135.036 81.5902 133.803 83.7963 133.803 85.8918C133.803 87.9873 135.061 90.1941 137.604 90.1941C138.64 90.1941 139.781 89.7749 140.427 88.9949L142.523 91.1192C141.405 92.3185 139.559 92.9935 137.575 92.9935C133.605 92.9935 130.31 90.3681 130.31 85.8981C130.31 81.4274 133.553 78.8007 137.493 78.8007C139.449 78.8007 141.487 79.5814 142.551 80.8961L140.259 82.9057ZM144.207 71.4798H147.559V84.8335H147.642L152.728 79.1875H157.031L151.221 85.2527L157.397 92.5996H152.955L147.646 85.7248H147.564V92.5996H144.212V71.4798H144.207ZM162.279 71.4798V80.8976H162.36C163.059 80.0309 164.399 78.8021 166.86 78.8021C170.689 78.8021 173.368 81.8755 173.368 85.8453C173.368 89.815 170.854 92.9998 166.773 92.9998C164.899 92.9998 163.083 92.1332 162.163 90.5957H162.105V92.6095H158.921V71.4798H162.279ZM166.108 81.5387C163.651 81.5387 162.168 83.8026 162.168 85.8981C162.168 87.9936 163.646 90.2004 166.108 90.2004C168.705 90.2004 169.962 87.9358 169.962 85.8397C169.962 83.7435 168.705 81.5387 166.108 81.5387ZM182.117 78.8007C186.169 78.8007 189.411 81.624 189.411 85.8439C189.411 90.0645 186.169 92.9984 182.117 92.9984C178.066 92.9984 174.824 90.0645 174.824 85.8439C174.824 81.624 178.066 78.8007 182.117 78.8007ZM182.117 90.1997C184.772 90.1997 186 87.9358 186 85.8389C186 83.7428 184.772 81.5373 182.117 81.5373C179.463 81.5373 178.234 83.7442 178.234 85.8389C178.234 87.9344 179.463 90.1997 182.117 90.1997ZM198.166 78.8007C202.218 78.8007 205.46 81.624 205.46 85.8439C205.46 90.0645 202.218 92.9984 198.166 92.9984C194.115 92.9984 190.873 90.0645 190.873 85.8439C190.873 81.624 194.115 78.8007 198.166 78.8007ZM198.166 90.1997C200.821 90.1997 202.049 87.9358 202.049 85.8389C202.049 83.7428 200.821 81.5373 198.166 81.5373C195.512 81.5373 194.284 83.7442 194.284 85.8389C194.279 87.9344 195.512 90.1997 198.166 90.1997ZM207.489 71.4798H210.842V84.8335H210.924L216.012 79.1875H220.313L214.504 85.2527L220.68 92.5996H216.238L210.929 85.7248H210.847V92.5996H207.494V71.4798H207.489ZM229.828 82.7648C229.24 81.9848 228.122 81.3105 226.894 81.3105C225.835 81.3105 224.74 81.7015 224.74 82.7655C224.74 83.8294 225.777 84.0803 227.645 84.5234C229.631 85.0005 231.977 85.8918 231.977 88.5171C231.977 91.7886 229.322 92.9879 226.388 92.9879C224.322 92.9879 222.169 92.2079 220.882 90.7817L223.088 88.7144C223.816 89.6635 225.074 90.3914 226.523 90.3914C227.501 90.3914 228.677 90.0003 228.677 88.7962C228.677 87.6787 227.64 87.3419 225.603 86.8691C223.619 86.3921 221.634 85.5832 221.634 83.0684C221.634 80.0767 224.317 78.7957 226.971 78.7957C228.898 78.7957 230.912 79.4651 232.001 80.8334L229.828 82.7655V82.7648ZM128.232 60.8798C128.232 64.2802 130.954 66.766 134.413 66.766C137.873 66.766 140.599 64.2858 140.599 60.8798V53.0706H137.246V60.4803C137.246 62.315 136.017 63.5439 134.404 63.5439C132.79 63.5439 131.561 62.315 131.561 60.4803V53.0706H128.212L128.232 60.8798ZM149.557 56.2068H153.556V66.4955H156.905V56.2068H160.898V53.0706H149.557V56.2068ZM147.39 53.0706H144.041V66.4976H147.39V53.0706ZM114.707 56.2068H118.706V66.4955H122.054V56.2068H126.048V53.0706H114.708V56.2061L114.707 56.2068ZM97.1316 53.0706H93.7833V66.4976H97.1316V53.0706ZM112.942 58.6884C112.942 55.288 110.215 52.8022 106.757 52.8022C103.297 52.8022 100.571 55.2831 100.571 58.6892V66.4983H103.919V59.0887C103.919 57.2532 105.147 56.025 106.761 56.025C108.375 56.025 109.604 57.2532 109.604 59.0887V66.4983H112.952L112.942 58.6892V58.6884Z" fill="black"/>
</svg>
