<svg width="274" height="150" viewBox="0 0 274 150" fill="none" xmlns="http://www.w3.org/2000/svg">
<path d="M130.906 86.2426C130.906 85.1861 131.096 84.1838 131.502 83.2356C131.909 82.2875 132.423 81.4748 133.101 80.7975C133.778 80.1203 134.59 79.5785 135.512 79.1721C136.433 78.7658 137.408 78.5762 138.464 78.5762C139.521 78.5762 140.496 78.7658 141.39 79.1721C142.311 79.5785 143.097 80.1203 143.774 80.7975C144.451 81.4748 144.993 82.3146 145.372 83.2356C145.779 84.1838 145.968 85.1861 145.968 86.2426C145.968 87.3262 145.779 88.3285 145.372 89.2766C144.966 90.2248 144.451 91.0375 143.774 91.7147C143.097 92.392 142.311 92.9338 141.39 93.3401C140.469 93.7465 139.494 93.9361 138.464 93.9361C137.408 93.9361 136.433 93.7465 135.512 93.3401C134.59 92.9338 133.778 92.392 133.101 91.7147C132.423 91.0375 131.881 90.1977 131.502 89.2766C131.096 88.3556 130.906 87.3262 130.906 86.2426ZM138.464 92.0127C139.223 92.0127 139.927 91.8773 140.577 91.5793C141.227 91.2813 141.796 90.8749 142.284 90.3602C142.772 89.8455 143.151 89.2225 143.422 88.5181C143.693 87.8138 143.828 87.0553 143.828 86.2697C143.828 85.457 143.693 84.6985 143.422 84.0212C143.151 83.3169 142.772 82.7209 142.284 82.2062C141.796 81.6915 141.227 81.2852 140.577 80.9872C139.927 80.6892 139.223 80.5537 138.464 80.5537C137.706 80.5537 137.001 80.6892 136.351 80.9872C135.701 81.2852 135.132 81.6915 134.645 82.2062C134.157 82.7209 133.778 83.3169 133.48 84.0212C133.182 84.7256 133.046 85.4841 133.046 86.2697C133.046 87.0824 133.182 87.8409 133.453 88.5181C133.724 89.2225 134.103 89.8184 134.59 90.3602C135.078 90.8749 135.647 91.2813 136.324 91.5793C137.001 91.8502 137.706 92.0127 138.464 92.0127Z" fill="#343741"/>
<path d="M159.999 93.6649V92.0937C159.376 92.6897 158.645 93.1231 157.832 93.4482C157.019 93.7462 156.152 93.9087 155.231 93.9087C154.175 93.9087 153.227 93.7191 152.305 93.3128C151.412 92.9064 150.599 92.3917 149.949 91.7145C149.271 91.0372 148.757 90.2245 148.377 89.2764C147.998 88.3282 147.809 87.3259 147.809 86.2694C147.809 85.2129 147.998 84.2106 148.377 83.2625C148.757 82.3143 149.299 81.5287 149.949 80.8515C150.626 80.1742 151.412 79.6324 152.333 79.2532C153.254 78.8468 154.229 78.6572 155.258 78.6572C156.098 78.6572 156.938 78.7926 157.751 79.0906C158.563 79.3886 159.322 79.795 159.972 80.3368V73.0225L162.166 72.5078V93.692H159.999V93.6649ZM149.922 86.2152C149.922 87.0279 150.057 87.7865 150.355 88.4908C150.653 89.1951 151.032 89.8182 151.52 90.3329C152.008 90.8476 152.603 91.2539 153.254 91.5519C153.931 91.8499 154.635 91.9854 155.421 91.9854C156.342 91.9854 157.209 91.7957 157.994 91.4436C158.78 91.0914 159.457 90.5767 159.945 89.9265V82.6123C159.43 81.9892 158.78 81.4745 157.967 81.1224C157.155 80.7702 156.315 80.5806 155.394 80.5806C153.85 80.5806 152.549 81.1224 151.493 82.206C150.436 83.2625 149.922 84.5899 149.922 86.2152Z" fill="#343741"/>
<path d="M167.476 72.4805V93.6647H165.309V72.9952L167.476 72.4805Z" fill="#343741"/>
<path d="M183.108 92.0935C182.268 92.7166 181.428 93.15 180.534 93.4751C179.64 93.7731 178.665 93.9356 177.608 93.9356C176.552 93.9356 175.549 93.746 174.601 93.3396C173.653 92.9333 172.868 92.4186 172.19 91.7142C171.513 91.037 170.971 90.2243 170.592 89.2762C170.186 88.328 169.996 87.3257 169.996 86.2421C169.996 85.1856 170.186 84.1833 170.565 83.2622C170.944 82.3412 171.459 81.5285 172.109 80.8512C172.759 80.174 173.518 79.6322 174.439 79.2259C175.333 78.8195 176.281 78.6299 177.283 78.6299C178.258 78.6299 179.18 78.8195 180.046 79.2259C180.913 79.6322 181.645 80.174 182.268 80.8512C182.891 81.5285 183.378 82.3412 183.758 83.2622C184.11 84.1833 184.299 85.1856 184.299 86.2421V86.9194H172.163C172.326 88.3822 172.922 89.5742 173.951 90.5494C175.008 91.5246 176.254 91.9851 177.69 91.9851C178.448 91.9851 179.207 91.8768 179.938 91.633C180.669 91.3892 181.265 91.0641 181.78 90.6307L183.108 92.0935ZM177.202 80.5533C175.929 80.5533 174.818 80.9867 173.87 81.8536C172.922 82.7204 172.38 83.8311 172.163 85.1856H182.051C181.861 83.8853 181.293 82.8017 180.371 81.8807C179.478 80.9867 178.421 80.5533 177.202 80.5533Z" fill="#343741"/>
<path d="M199.197 92.0935C198.358 92.7166 197.518 93.15 196.624 93.4751C195.73 93.7731 194.755 93.9356 193.698 93.9356C192.642 93.9356 191.639 93.746 190.691 93.3396C189.743 92.9333 188.957 92.4186 188.28 91.7142C187.603 91.037 187.061 90.2243 186.682 89.2762C186.276 88.328 186.086 87.3257 186.086 86.2421C186.086 85.1856 186.276 84.1833 186.655 83.2622C187.034 82.3412 187.549 81.5285 188.199 80.8512C188.849 80.174 189.608 79.6322 190.529 79.2259C191.423 78.8195 192.371 78.6299 193.373 78.6299C194.348 78.6299 195.269 78.8195 196.136 79.2259C197.003 79.6322 197.735 80.174 198.358 80.8512C198.981 81.5285 199.468 82.3412 199.848 83.2622C200.2 84.1833 200.389 85.1856 200.389 86.2421V86.9194H188.253C188.416 88.3822 189.012 89.5742 190.041 90.5494C191.098 91.5246 192.344 91.9851 193.779 91.9851C194.538 91.9851 195.296 91.8768 196.028 91.633C196.759 91.3892 197.355 91.0641 197.87 90.6307L199.197 92.0935ZM193.292 80.5533C192.019 80.5533 190.908 80.9867 189.96 81.8536C189.012 82.7204 188.47 83.8311 188.253 85.1856H198.141C197.951 83.8853 197.382 82.8017 196.461 81.8807C195.594 80.9867 194.511 80.5533 193.292 80.5533Z" fill="#343741"/>
<path d="M115.898 65.8708V56.2539H121.479V57.8251H117.713V60.0736H120.991L120.666 61.6719H117.713V64.2996H121.479V65.8708H115.898Z" fill="#0084D4"/>
<path d="M131.555 65.8708L127.031 59.2609V65.8708H125.324V56.2539H127.058L131.365 62.5387V56.2539H133.099V65.8708H131.555Z" fill="#0084D4"/>
<path d="M141.687 65.8981H139.872L136.242 56.1729H138.301L140.847 63.5142L143.367 56.2541H145.29L141.687 65.8981Z" fill="#0084D4"/>
<path d="M161.409 65.9791C160.244 65.9791 159.242 65.7082 158.402 65.3019L158.673 63.6223C159.486 64.0828 160.488 64.4621 161.436 64.4621C162.276 64.4621 162.872 64.0557 162.872 63.2972C162.872 62.5929 162.547 62.2949 161.138 61.6989C159.269 60.9404 158.511 60.3173 158.511 58.8274C158.511 57.1207 159.811 56.1455 161.626 56.1455C162.71 56.1455 163.468 56.3622 164.145 56.7415L163.874 58.421C163.17 57.9605 162.357 57.6625 161.599 57.6625C160.678 57.6625 160.272 58.096 160.272 58.6919C160.272 59.315 160.57 59.5859 161.924 60.1548C163.902 60.9675 164.633 61.6447 164.633 63.1347C164.633 65.0039 163.279 65.9791 161.409 65.9791Z" fill="#0084D4"/>
<path d="M172.354 57.8522V65.8708H170.512V57.8522H167.668V56.2539H175.28L174.928 57.8522H172.354Z" fill="#0084D4"/>
<path d="M184.867 65.8708L180.343 59.2609V65.8708H178.637V56.2539H180.37L184.678 62.5387V56.2539H186.384V65.8708H184.867Z" fill="#0084D4"/>
<path d="M204.155 57.8522V65.8708H202.313V57.8522H199.469V56.2539H207L206.648 57.8522H204.155Z" fill="#0084D4"/>
<path d="M148.812 65.8437V56.2539H154.393V57.798H150.655V60.0465H153.905L153.607 61.6448H150.655V64.2725H154.42V65.8437H148.812Z" fill="#0084D4"/>
<path d="M190.664 65.871V56.2812H196.245V57.8254H192.479V60.0738H195.757L195.432 61.6721H192.479V64.2998H196.245V65.871H190.664Z" fill="#0084D4"/>
<path d="M67 44.2529V54.7367L87.805 61.482L103.896 56.2537L67 44.2529Z" fill="#8BD3E6"/>
<path d="M67 57.7705V68.2272V68.2543L83.1184 62.9988L67 57.7705Z" fill="#8BD3E6"/>
<path d="M87.8037 75.0002L103.895 69.7719V69.7448L99.2356 68.2549L83.1172 73.4832L87.8037 75.0002Z" fill="#8BD3E6"/>
<path d="M87.8037 88.5176L103.895 83.2892V83.2621L99.2356 81.7451L83.1172 87.0005L87.8037 88.5176Z" fill="#8BD3E6"/>
<path d="M78.459 75L67 78.7113V81.7454L83.1184 76.517L78.459 75Z" fill="#8BD3E6"/>
<path d="M67 81.7451V92.2289L83.1184 87.0005L67 81.7451Z" fill="#343741"/>
<path d="M83.1172 76.517L99.2356 81.7454L103.895 80.2283L87.8037 75L83.1172 76.517Z" fill="#343741"/>
<path d="M103.896 80.2281V69.7715L87.8047 74.9998L103.896 80.2281Z" fill="#0084D4"/>
<path d="M67 81.7449L83.1184 87.0003L99.2368 81.7449L83.1184 76.5166L67 81.7449Z" fill="#0084D4"/>
<path d="M67 95.2629V105.747L103.896 93.7459L87.805 88.5176L67 95.2629Z" fill="#343741"/>
<path d="M103.896 93.7457V83.2891L87.8047 88.5174L103.896 93.7457Z" fill="#0084D4"/>
<path d="M83.1172 62.9994L99.2356 68.2549L103.895 66.7378V66.7108L87.8037 61.4824L83.1172 62.9994Z" fill="#343741"/>
<path d="M83.1184 73.4832L67 68.2549V71.2889L78.459 75.0002L83.1184 73.4832Z" fill="#343741"/>
<path d="M103.896 66.7106V56.2539L87.8047 61.4822L103.896 66.7106Z" fill="#0084D4"/>
<path d="M67 68.2544L83.1184 73.4828L99.2368 68.2544L83.1184 62.999L67 68.2544Z" fill="#0084D4"/>
<path d="M67 71.2881V78.7107L78.459 74.9994L67 71.2881Z" fill="#0084D4"/>
<path d="M123.833 93.6646V85.2397L115.625 72.9951H118.28L125.052 83.2351L131.798 72.9951H134.344L126.109 85.321V93.6646H123.833Z" fill="#343741"/>
</svg>
